<svg width="28" height="26" viewBox="0 0 28 26" fill="none" xmlns="http://www.w3.org/2000/svg">
    <path fill-rule="evenodd" clip-rule="evenodd"
        d="M8.16634 12.3076C6.38596 12.3076 4.89007 11.1208 4.50979 9.53678H2.33301V7.95345H4.50979C4.89007 6.36942 6.38596 5.18262 8.16634 5.18262C9.94672 5.18262 11.4426 6.36942 11.8229 7.95345H25.6663V9.53678H11.8229C11.4426 11.1208 9.94672 12.3076 8.16634 12.3076ZM8.16634 6.76595C7.01634 6.76595 6.08301 7.65262 6.08301 8.74512C6.08301 9.83762 7.01634 10.7243 8.16634 10.7243C9.31634 10.7243 10.2497 9.83762 10.2497 8.74512C10.2497 7.65262 9.31634 6.76595 8.16634 6.76595Z"
        fill="black" />
    <path fill-rule="evenodd" clip-rule="evenodd"
        d="M16.1765 16.4637H2.33301V18.047H16.1765C16.5567 19.6311 18.0526 20.8179 19.833 20.8179C21.6134 20.8179 23.1093 19.6311 23.4896 18.047H25.6663V16.4637H23.4896C23.1093 14.8797 21.6134 13.6929 19.833 13.6929C18.0526 13.6929 16.5567 14.8797 16.1765 16.4637ZM19.833 15.2762C18.683 15.2762 17.7497 16.1629 17.7497 17.2554C17.7497 18.3479 18.683 19.2345 19.833 19.2345C20.983 19.2345 21.9163 18.3479 21.9163 17.2554C21.9163 16.1629 20.983 15.2762 19.833 15.2762Z"
        fill="black" />
</svg>